<?xml version="1.0" encoding="UTF-8"?>
<svg width="28px" height="28px" viewBox="0 0 28 28" version="1.1" xmlns="http://www.w3.org/2000/svg" xmlns:xlink="http://www.w3.org/1999/xlink">
    <!-- Generator: Sketch 52.5 (67469) - http://www.bohemiancoding.com/sketch -->
    <title>Invotra-Labs-Symbol-Fill-Reverse</title>
    <desc>Created with Sketch.</desc>
    <g id="Invotra-Labs-Symbol-Fill-Reverse" stroke="none" stroke-width="1" fill="none" fill-rule="evenodd">
        <g id="Invotra-Labs-Symbol">
            <path d="M14,28 C6.2678913,28 0,21.7319565 0,14 C0,6.2678913 6.2678913,0 14,0 C21.7321087,0 28,6.2678913 28,13.9998478 C28,21.7319565 21.7321087,28 14,28 Z" id="Stroke-3" fill="#FFFFFF"></path>
            <polygon id="Fill-5" stroke="#253544" stroke-width="0.933333333" points="12.6168061 10.7593769 11.25 10 8.5 11.5040187 8.5 14.5113118 11.25 16 14 14.5113118 14 11.5040187"></polygon>
            <polygon id="Fill-7" stroke="#253544" stroke-width="0.933333333" points="15.61716 15.744493 14.2502364 15 11.5 16.4886882 11.5 19.4959813 14.2502364 21 17 19.4959813 17 16.4886882"></polygon>
            <polygon id="Fill-9" stroke="#253544" stroke-width="0.933333333" points="18.1331156 10.7440464 16.7498424 10 14 11.4886882 14 14.4959813 16.7498424 16 19.5 14.4959813 19.5 11.4886882"></polygon>
            <polygon id="Fill-11" stroke="#253544" stroke-width="0.933333333" points="21.11716 15.744493 19.7502364 15 17 16.4886882 17 19.4959813 19.7502364 21 22.5 19.4959813 22.5 16.4886882"></polygon>
            <polygon id="Fill-13" stroke="#253544" stroke-width="0.933333333" points="10.117042 15.744493 8.75015758 15 6 16.4886882 6 19.4959813 8.75015758 21 11.5 19.4959813 11.5 16.4886882"></polygon>
            <polygon id="Fill-15" stroke="#253544" stroke-width="0.933333333" points="15.61716 5.74464179 14.2502364 5 11.5 6.48868823 11.5 9.49613018 14.2502364 11 17 9.49613018 17 6.48868823"></polygon>
            <path d="M13,7.5 L15,6.5" id="Stroke-17" stroke="#253544" stroke-width="0.5" stroke-linecap="round"></path>
            <path d="M9.5,12.5 L11.5,11.5" id="Stroke-19" stroke="#253544" stroke-width="0.5" stroke-linecap="round"></path>
            <path d="M15.5,12.5 L17.5,11.5" id="Stroke-21" stroke="#253544" stroke-width="0.5" stroke-linecap="round"></path>
            <path d="M12.5,17.5 L14.5,16.5" id="Stroke-23" stroke="#253544" stroke-width="0.5" stroke-linecap="round"></path>
            <path d="M7.5,17.5 L9.5,16.5" id="Stroke-25" stroke="#253544" stroke-width="0.5" stroke-linecap="round"></path>
            <path d="M18.5,17.5 L20.5,16.5" id="Stroke-27" stroke="#253544" stroke-width="0.5" stroke-linecap="round"></path>
        </g>
    </g>
</svg>