<?xml version="1.0" encoding="UTF-8"?>
<svg width="50px" height="48px" viewBox="0 0 50 48" version="1.1" xmlns="http://www.w3.org/2000/svg" xmlns:xlink="http://www.w3.org/1999/xlink">
    <!-- Generator: Sketch 52.5 (67469) - http://www.bohemiancoding.com/sketch -->
    <title>Invotra-Labs-Apps-Admin-icon</title>
    <desc>Created with Sketch.</desc>
    <defs>
        <path d="M24,2.16 L24,9 L13,9 L13,0 L21.9587629,0 C23.086107,-2.39808173e-16 24,0.96706494 24,2.16 Z M21.9587629,2.16 L15.0412371,2.16 L15.0412371,6.84 L21.9587629,6.84 L21.9587629,2.16 Z M11,0 L11,13 L0,13 L0,1.96638655 C-2.26622844e-16,0.880381248 0.913892985,2.18312763e-16 2.04123711,0 L11,0 Z M8.95876289,1.96638655 L2.04123711,1.96638655 L2.04123711,11.0336134 L8.95876289,11.0336134 L8.95876289,1.96638655 Z M24,11 L24,22.0336134 C24,23.1196188 23.086107,24 21.9587629,24 L13,24 L13,11 L24,11 Z M21.9587629,12.9663866 L15.0412371,12.9663866 L15.0412371,22.0336134 L21.9587629,22.0336134 L21.9587629,12.9663866 Z M11,15 L11,24 L2.04123711,24 C0.913892985,24 1.13311422e-16,23.0329351 0,21.84 L0,15 L11,15 Z M2.04123711,17.16 L2.04123711,21.84 L8.95876289,21.84 L8.95876289,17.16 L2.04123711,17.16 Z" id="path-1"></path>
    </defs>
    <g id="Invotra-Labs-Apps-Admin-icon" stroke="none" stroke-width="1" fill="none" fill-rule="evenodd">
        <g id="icon/action/dashboard_24px" transform="translate(13.000000, 12.000000)">
            <mask id="mask-2" fill="white">
                <use xlink:href="#path-1"></use>
            </mask>
            <use id="Combined-Shape" fill="#000000" fill-rule="nonzero" xlink:href="#path-1"></use>
        </g>
    </g>
</svg>