<?xml version="1.0" encoding="UTF-8"?>
<svg width="24px" height="24px" viewBox="0 0 24 24" version="1.1" xmlns="http://www.w3.org/2000/svg" xmlns:xlink="http://www.w3.org/1999/xlink">
    <!-- Generator: Sketch 52.5 (67469) - http://www.bohemiancoding.com/sketch -->
    <title>Invotra-Labs-Notifications-icon</title>
    <desc>Created with Sketch.</desc>
    <defs>
        <path d="M8,19.75 C9.1,19.75 10,18.85 10,17.75 L6,17.75 C6,18.85 6.9,19.75 8,19.75 Z M14,13.75 L14,8.75 C14,5.68 12.37,3.11 9.5,2.43 L9.5,1.75 C9.5,0.92 8.83,0.25 8,0.25 C7.17,0.25 6.5,0.92 6.5,1.75 L6.5,2.43 C3.64,3.11 2,5.67 2,8.75 L2,13.75 L0,15.75 L0,16.75 L16,16.75 L16,15.75 L14,13.75 Z M12,14.75 L4,14.75 L4,8.75 C4,6.27 5.51,4.25 8,4.25 C10.49,4.25 12,6.27 12,8.75 L12,14.75 Z" id="path-1"></path>
    </defs>
    <g id="Invotra-Labs-Notifications-icon" stroke="none" stroke-width="1" fill="none" fill-rule="evenodd">
        <g id="icon/action/apps_24px" transform="translate(4.000000, 2.000000)">
            <mask id="mask-2" fill="white">
                <use xlink:href="#path-1"></use>
            </mask>
            <use id="icon/social/notifications_24px" fill="#000000" fill-rule="nonzero" xlink:href="#path-1"></use>
        </g>
    </g>
</svg>