<?xml version="1.0" encoding="UTF-8"?>
<svg width="24px" height="24px" viewBox="0 0 24 24" version="1.1" xmlns="http://www.w3.org/2000/svg" xmlns:xlink="http://www.w3.org/1999/xlink">
    <!-- Generator: Sketch 52.5 (67469) - http://www.bohemiancoding.com/sketch -->
    <title>Invotra-Labs-Feed-icon</title>
    <desc>Created with Sketch.</desc>
    <g id="Invotra-Labs-Feed-icon" stroke="none" stroke-width="1" fill="none" fill-rule="evenodd" fill-opacity="0.54">
        <path d="M5.25,3 L18.75,3 C19.9926407,3 21,4.20883118 21,5.7 L21,18.3 C21,19.7911688 19.9926407,21 18.75,21 L5.25,21 C4.00735931,21 3,19.7911688 3,18.3 L3,5.7 C3,4.20883118 4.00735931,3 5.25,3 Z M5,5 L5,19 L19,19 L19,5 L5,5 Z M7,17 L7,15 L17,15 L17,17 L7,17 Z M7,13 L7,11 L17,11 L17,13 L7,13 Z M7,7 L17,7 L17,9 L7,9 L7,7 Z" id="Combined-Shape" fill="#000000" fill-rule="nonzero"></path>
    </g>
</svg>