<?xml version="1.0" encoding="UTF-8"?>
<svg width="24px" height="24px" viewBox="0 0 24 24" version="1.1" xmlns="http://www.w3.org/2000/svg" xmlns:xlink="http://www.w3.org/1999/xlink">
    <!-- Generator: Sketch 52.5 (67469) - http://www.bohemiancoding.com/sketch -->
    <title>Invotra-Labs-Feed-icon</title>
    <desc>Created with Sketch.</desc>
    <g id="Invotra-Labs-Feed-icon" stroke="none" stroke-width="1" fill="none" fill-rule="evenodd">
        <path d="M5.25,3 L18.75,3 C19.9926407,3 21,4.20883118 21,5.7 L21,18.3 C21,19.7911688 19.9926407,21 18.75,21 L5.25,21 C4.00735931,21 3,19.7911688 3,18.3 L3,5.7 C3,4.20883118 4.00735931,3 5.25,3 Z M5,5 L5,19 L19,19 L19,5 L5,5 Z M8,17 C7.44771525,17 7,16.5522847 7,16 C7,15.4477153 7.44771525,15 8,15 L13,15 C13.5522847,15 14,15.4477153 14,16 C14,16.5522847 13.5522847,17 13,17 L8,17 Z M8,13 C7.44771525,13 7,12.5522847 7,12 C7,11.4477153 7.44771525,11 8,11 L13,11 C13.5522847,11 14,11.4477153 14,12 C14,12.5522847 13.5522847,13 13,13 L8,13 Z M7,8 C7,7.44771525 7.44771525,7 8,7 L16,7 C16.5522847,7 17,7.44771525 17,8 C17,8.55228475 16.5522847,9 16,9 L8,9 C7.44771525,9 7,8.55228475 7,8 Z" id="Combined-Shape" fill="#000000" fill-rule="nonzero"></path>
    </g>
</svg>