<?xml version="1.0" encoding="UTF-8"?>
<svg width="24px" height="24px" viewBox="0 0 24 24" version="1.1" xmlns="http://www.w3.org/2000/svg" xmlns:xlink="http://www.w3.org/1999/xlink">
    <!-- Generator: Sketch 52.5 (67469) - http://www.bohemiancoding.com/sketch -->
    <title>Invotra-Labs-Apps-Admin-icon</title>
    <desc>Created with Sketch.</desc>
    <defs>
        <path d="M18,1.62 L18,6.75 L9.75,6.75 L9.75,0 L16.4690722,0 C17.3145803,-1.7985613e-16 18,0.725298705 18,1.62 Z M16.4690722,1.62 L11.2809278,1.62 L11.2809278,5.13 L16.4690722,5.13 L16.4690722,1.62 Z M8.25,0 L8.25,9.75 L0,9.75 L0,1.47478992 C-1.69967133e-16,0.660285936 0.685419739,1.63734572e-16 1.53092784,0 L8.25,0 Z M6.71907216,1.47478992 L1.53092784,1.47478992 L1.53092784,8.27521008 L6.71907216,8.27521008 L6.71907216,1.47478992 Z M18,8.25 L18,16.5252101 C18,17.3397141 17.3145803,18 16.4690722,18 L9.75,18 L9.75,8.25 L18,8.25 Z M16.4690722,9.72478992 L11.2809278,9.72478992 L11.2809278,16.5252101 L16.4690722,16.5252101 L16.4690722,9.72478992 Z M8.25,11.25 L8.25,18 L1.53092784,18 C0.685419739,18 8.49835666e-17,17.2747013 0,16.38 L0,11.25 L8.25,11.25 Z M1.53092784,12.87 L1.53092784,16.38 L6.71907216,16.38 L6.71907216,12.87 L1.53092784,12.87 Z" id="path-1"></path>
    </defs>
    <g id="Invotra-Labs-Apps-Admin-icon" stroke="none" stroke-width="1" fill="none" fill-rule="evenodd">
        <g id="icon/action/dashboard_24px" transform="translate(3.000000, 3.000000)">
            <mask id="mask-2" fill="white">
                <use xlink:href="#path-1"></use>
            </mask>
            <use id="Combined-Shape" fill="#000000" fill-rule="nonzero" xlink:href="#path-1"></use>
        </g>
    </g>
</svg>